<?xml version="1.0" standalone="no"?>
<!DOCTYPE svg PUBLIC "-//W3C//DTD SVG 20010904//EN"
 "http://www.w3.org/TR/2001/REC-SVG-20010904/DTD/svg10.dtd">
<svg version="1.0" xmlns="http://www.w3.org/2000/svg"
 width="3001.000000pt" height="3001.000000pt" viewBox="0 0 3001.000000 3001.000000"
 preserveAspectRatio="xMidYMid meet">
<metadata>
Created by potrace 1.11, written by Peter Selinger 2001-2013
</metadata>
<g transform="translate(0.000000,3001.000000) scale(0.100000,-0.100000)"
fill="#000000" stroke="none">
<path d="M8531 21188 c-50 -8 -102 -29 -178 -74 -42 -24 -580 -352 -788 -479
-88 -53 -175 -106 -194 -117 -19 -11 -59 -35 -88 -54 -29 -19 -55 -34 -58 -34
-2 0 -42 -24 -88 -52 -45 -29 -92 -58 -102 -65 -22 -13 -118 -71 -815 -495
-267 -162 -579 -353 -695 -423 -263 -160 -333 -203 -575 -349 -107 -65 -211
-128 -230 -141 -28 -18 -687 -419 -873 -531 -27 -16 -61 -37 -75 -46 -15 -9
-38 -23 -52 -31 -14 -8 -86 -51 -160 -97 -74 -46 -272 -166 -440 -268 -168
-102 -342 -208 -388 -236 -46 -28 -95 -58 -110 -67 -137 -82 -499 -303 -507
-309 -5 -4 -26 -17 -45 -28 -455 -256 -688 -464 -850 -758 -72 -130 -144 -348
-165 -497 -4 -27 -8 -59 -11 -70 -25 -124 -24 -674 1 -862 3 -22 8 -53 10 -70
8 -64 38 -193 62 -270 72 -231 163 -378 342 -555 127 -125 170 -155 541 -381
249 -151 320 -194 448 -270 15 -9 133 -80 262 -159 129 -79 255 -155 280 -170
25 -15 205 -124 400 -242 195 -118 526 -318 735 -445 405 -245 494 -299 715
-433 77 -47 207 -125 288 -174 81 -49 262 -159 402 -244 140 -85 271 -164 291
-176 20 -12 125 -75 233 -141 108 -66 211 -128 229 -139 53 -30 459 -277 497
-301 19 -12 94 -58 165 -101 138 -83 452 -273 938 -568 164 -100 310 -188 325
-197 15 -9 68 -41 117 -71 117 -71 164 -89 244 -92 81 -4 152 12 211 47 197
115 258 367 134 553 -46 69 -83 97 -302 229 -97 58 -292 176 -432 261 -140 86
-279 170 -308 187 -72 43 -71 42 -367 222 -505 307 -921 559 -963 584 -24 14
-56 34 -70 43 -15 10 -34 21 -42 25 -23 12 -119 71 -170 104 -25 16 -52 32
-60 36 -8 3 -49 28 -90 53 -41 26 -172 105 -290 177 -118 71 -321 194 -450
273 -129 79 -266 162 -305 185 -145 87 -508 307 -710 430 -115 70 -223 136
-240 145 -16 9 -100 60 -185 112 -85 52 -317 193 -515 313 -542 327 -603 369
-759 523 -179 177 -315 396 -384 622 -66 215 -90 457 -69 683 14 141 76 384
108 423 6 8 9 14 5 14 -11 0 71 153 131 245 91 137 198 258 339 381 151 132
70 80 1349 859 369 224 720 438 780 475 212 129 390 238 422 256 17 11 86 53
154 94 67 41 136 84 155 95 119 72 418 254 574 351 102 62 191 117 199 121 8
3 91 54 185 111 94 58 209 128 256 156 47 27 87 53 90 56 3 3 19 13 35 22 47
27 417 252 560 340 72 44 144 88 160 98 17 9 134 80 260 157 127 77 255 155
285 173 30 18 71 43 90 55 19 13 136 84 260 159 124 75 244 155 268 178 113
112 142 298 70 446 -49 103 -179 197 -288 208 -25 3 -49 6 -55 8 -5 1 -34 -1
-64 -6z"/>
<path d="M21370 21176 c-188 -52 -302 -212 -287 -403 9 -123 66 -222 167 -291
57 -38 66 -44 135 -85 22 -13 216 -131 430 -262 397 -242 751 -457 872 -531
38 -22 151 -92 253 -154 206 -126 373 -228 608 -370 256 -156 608 -370 726
-443 11 -7 49 -30 85 -53 37 -22 73 -43 81 -47 14 -7 647 -393 770 -470 60
-38 687 -419 735 -447 17 -10 91 -55 165 -100 74 -46 209 -128 300 -184 91
-55 235 -142 320 -194 85 -52 167 -102 182 -111 137 -83 168 -103 203 -130 22
-17 53 -41 70 -54 90 -67 238 -210 319 -307 173 -207 284 -431 337 -680 37
-169 36 -506 -1 -650 -5 -19 -12 -49 -15 -67 -11 -66 -68 -221 -119 -323 -73
-146 -161 -266 -290 -396 -133 -132 -243 -216 -471 -354 -93 -57 -186 -113
-205 -125 -19 -13 -170 -104 -335 -203 -165 -100 -305 -186 -312 -191 -7 -6
-14 -11 -17 -11 -3 0 -87 -50 -188 -112 -101 -61 -214 -130 -253 -153 -69 -41
-516 -312 -750 -455 -128 -78 -370 -224 -710 -430 -115 -70 -338 -205 -495
-300 -503 -305 -749 -455 -778 -471 -50 -30 -647 -391 -682 -414 -95 -60 -201
-125 -205 -125 -3 0 -29 -15 -58 -34 -29 -19 -69 -43 -88 -54 -19 -11 -117
-70 -219 -132 -102 -62 -240 -146 -307 -187 -200 -121 -257 -206 -258 -383 0
-88 3 -101 32 -160 91 -185 299 -271 483 -201 36 14 304 171 530 312 70 43
272 165 298 181 19 10 221 133 450 272 229 139 449 272 487 295 39 23 133 81
210 128 77 47 155 94 174 105 30 17 89 53 157 95 10 7 48 30 84 51 70 42 620
375 893 541 93 56 181 110 197 119 16 9 122 73 235 142 113 69 218 132 233
141 15 9 133 80 262 159 129 79 332 201 450 273 118 71 227 138 242 148 14 11
29 19 32 19 4 0 25 12 49 27 23 14 58 36 77 48 19 12 154 94 300 182 146 88
393 238 550 333 157 95 299 181 315 190 17 10 116 70 220 133 105 64 222 135
260 158 258 155 471 388 575 629 42 95 94 258 104 326 21 134 26 165 31 219 3
33 8 78 10 100 6 48 5 513 0 570 -13 144 -18 180 -36 270 -11 55 -22 107 -24
115 -27 125 -130 344 -222 472 -66 93 -214 247 -318 330 -38 31 -232 155 -430
275 -442 269 -542 330 -1015 618 -471 286 -599 364 -630 384 -14 8 -34 21 -45
27 -11 6 -103 62 -205 124 -102 62 -286 174 -410 250 -124 75 -298 181 -387
236 -90 54 -171 104 -180 109 -19 11 -70 42 -453 275 -135 82 -312 190 -395
240 -187 114 -179 109 -239 146 -65 40 -512 312 -548 333 -39 23 -263 160
-543 331 -132 81 -399 243 -593 361 -805 489 -760 465 -874 467 -35 1 -83 -5
-108 -12z"/>
<path d="M8445 19722 c-11 -2 -189 -106 -395 -230 -206 -124 -387 -232 -402
-241 -15 -9 -93 -56 -175 -105 -81 -49 -157 -94 -167 -100 -11 -6 -25 -15 -30
-19 -6 -5 -84 -52 -173 -105 -90 -53 -349 -209 -575 -345 -227 -137 -532 -320
-678 -407 -257 -155 -291 -175 -355 -216 -16 -10 -39 -24 -50 -30 -11 -6 -164
-98 -340 -204 -176 -106 -396 -238 -488 -294 -92 -56 -180 -109 -195 -118 -15
-10 -33 -21 -40 -24 -7 -4 -120 -71 -250 -150 -130 -79 -264 -159 -297 -178
-171 -98 -356 -248 -510 -417 -205 -223 -341 -496 -380 -764 -4 -22 -8 -51
-11 -65 -7 -41 -6 -249 1 -325 40 -426 261 -805 632 -1084 78 -58 443 -290
508 -321 5 -3 117 -69 248 -148 131 -79 251 -151 267 -160 16 -9 228 -136 471
-282 243 -146 458 -275 478 -286 20 -12 466 -279 991 -594 525 -315 967 -580
982 -589 15 -9 228 -137 473 -284 384 -231 451 -268 486 -269 45 0 86 23 107
63 17 31 9 104 -13 129 -13 14 -1206 739 -1420 863 -11 6 -44 26 -72 44 -29
18 -55 33 -57 33 -3 0 -47 26 -99 59 -52 32 -98 60 -103 62 -13 6 -1554 928
-1584 948 -20 13 -372 224 -488 292 -199 117 -658 396 -727 442 -397 266 -675
591 -780 912 -57 173 -68 405 -26 559 89 331 338 642 780 975 63 47 249 168
415 268 384 231 1997 1201 2042 1228 19 11 209 125 422 254 213 129 675 407
1027 618 377 226 651 397 668 416 44 51 34 128 -23 168 -29 20 -66 28 -95 21z"/>
<path d="M21620 19716 c-41 -13 -80 -67 -80 -110 0 -69 37 -97 428 -327 73
-43 1196 -718 1322 -794 80 -49 154 -93 165 -99 11 -6 63 -37 115 -69 52 -32
102 -62 110 -67 8 -5 98 -59 200 -120 102 -61 192 -115 200 -120 8 -5 44 -27
78 -47 35 -21 76 -45 90 -54 15 -9 419 -252 897 -539 592 -356 912 -555 1002
-622 72 -54 137 -103 145 -110 7 -7 47 -42 88 -78 273 -235 464 -494 542 -735
48 -149 55 -363 16 -510 -5 -22 -10 -42 -11 -45 0 -3 -12 -39 -27 -80 -116
-322 -389 -627 -810 -907 -41 -27 -277 -170 -525 -318 -247 -147 -466 -278
-485 -290 -19 -12 -48 -30 -65 -41 -16 -10 -39 -24 -50 -29 -28 -16 -920 -550
-1090 -653 -77 -47 -154 -93 -171 -101 -16 -9 -213 -126 -437 -261 -224 -135
-415 -249 -425 -255 -9 -5 -298 -179 -641 -385 -465 -279 -629 -383 -643 -405
-50 -83 21 -192 116 -178 17 2 87 38 156 80 69 42 145 87 170 101 25 13 50 28
55 32 13 10 1712 1029 1760 1056 23 13 2343 1402 2518 1508 256 155 471 343
600 524 121 169 209 379 252 602 24 124 25 396 2 526 -20 109 -59 236 -98 320
-16 34 -29 63 -29 66 0 13 -101 172 -154 242 -56 73 -214 240 -296 312 -104
90 -255 187 -865 554 -368 222 -700 422 -738 444 -37 23 -83 50 -101 61 -19
11 -153 91 -298 178 -145 87 -326 197 -403 243 -77 46 -149 89 -160 96 -29 17
-676 406 -700 420 -11 6 -382 230 -825 496 -443 267 -819 488 -836 492 -17 4
-46 2 -64 -4z"/>
<path d="M12720 19419 c-95 -9 -157 -29 -219 -69 -104 -66 -181 -181 -201
-301 -7 -44 -11 -827 -13 -2499 -2 -1339 -6 -2451 -10 -2470 -4 -19 -15 -71
-24 -115 -46 -237 -167 -465 -337 -638 -192 -196 -393 -300 -676 -352 -61 -11
-332 -14 -405 -3 -335 46 -607 205 -806 471 -169 226 -251 470 -265 792 -3 72
-10 157 -16 190 -27 163 -156 305 -318 349 -107 30 -264 25 -334 -10 -16 -7
-34 -14 -39 -14 -13 0 -115 -76 -141 -104 -41 -46 -76 -106 -97 -167 -19 -54
-22 -86 -23 -199 0 -119 9 -267 20 -325 2 -10 6 -37 10 -60 13 -93 57 -276 88
-370 277 -826 993 -1365 1901 -1431 181 -13 425 -7 569 15 33 6 77 12 97 15
180 27 420 107 619 206 552 276 955 798 1094 1415 14 61 28 133 32 160 3 28 8
59 10 70 15 78 18 484 18 2635 0 2342 0 2427 -19 2485 -10 33 -24 67 -32 76
-7 8 -13 20 -13 26 0 5 -24 37 -54 69 -74 82 -176 136 -281 150 -22 3 -44 6
-50 8 -5 1 -44 -1 -85 -5z"/>
<path d="M14157 19418 c-154 -22 -306 -126 -367 -253 -27 -55 -48 -158 -44
-211 10 -129 33 -180 198 -436 67 -103 142 -220 168 -260 25 -40 104 -163 175
-273 71 -110 178 -276 238 -370 60 -93 139 -216 177 -273 37 -57 68 -105 68
-106 0 -2 33 -53 73 -114 39 -61 113 -174 162 -252 50 -77 159 -247 243 -378
84 -130 176 -273 204 -317 28 -44 79 -123 113 -175 33 -52 128 -198 209 -325
81 -126 237 -369 347 -539 109 -171 199 -319 200 -330 0 -12 2 -518 3 -1126 2
-608 6 -1118 10 -1133 39 -163 166 -298 326 -348 73 -22 193 -24 270 -4 142
38 264 148 321 290 l24 60 3 1138 2 1139 67 101 c36 56 170 262 296 457 226
350 280 432 402 620 34 52 117 181 185 285 158 245 227 351 325 502 44 67 96
148 116 180 20 32 103 159 183 283 81 124 193 296 249 383 56 86 138 213 182
280 44 68 109 168 144 223 35 54 105 162 156 239 222 342 230 355 256 435 23
73 32 207 18 272 -28 126 -118 247 -223 298 -75 37 -92 41 -181 40 -208 -1
-326 -74 -460 -285 -35 -55 -107 -170 -161 -255 -54 -85 -123 -193 -153 -240
-31 -47 -60 -93 -66 -103 -5 -10 -104 -166 -220 -347 -115 -182 -214 -337
-220 -347 -5 -9 -32 -51 -60 -94 -27 -43 -77 -121 -110 -173 -33 -53 -85 -136
-116 -184 -31 -48 -190 -298 -354 -557 -164 -258 -316 -499 -339 -535 -99
-153 -282 -441 -291 -458 -30 -54 -78 -122 -83 -117 -3 3 -74 114 -158 248
-84 133 -178 283 -210 332 -133 210 -149 234 -388 615 -203 323 -229 364 -363
575 -113 178 -385 610 -423 671 -19 31 -42 67 -50 80 -58 90 -199 313 -215
341 -88 145 -378 597 -408 636 -79 100 -140 148 -223 176 -67 22 -154 30 -227
19z"/>
<path d="M21480 19044 c-139 -32 -260 -118 -325 -229 -13 -22 -155 -368 -315
-770 -160 -401 -295 -739 -300 -750 -5 -11 -327 -816 -716 -1790 -388 -973
-712 -1783 -720 -1799 -8 -16 -14 -33 -14 -39 0 -5 -7 -23 -15 -40 -32 -70
-354 -885 -364 -922 -53 -198 18 -406 179 -527 132 -99 270 -124 460 -84 52
11 167 77 212 121 67 66 85 101 208 411 61 153 115 290 122 304 13 30 0 -3
143 360 65 162 124 308 131 324 8 16 14 33 14 38 0 4 9 30 21 56 26 58 24 54
94 232 32 80 64 161 72 180 17 39 22 51 53 130 11 30 25 64 30 75 20 45 182
458 181 462 0 2 39 95 59 138 5 11 25 61 44 110 19 50 40 104 47 120 7 17 13
35 15 40 5 15 202 507 213 530 5 11 35 85 66 165 31 80 63 159 70 175 52 118
924 2317 931 2345 4 19 9 42 11 50 11 50 2 191 -16 250 -48 156 -184 287 -341
331 -63 17 -184 19 -250 3z m246 -229 c116 -57 178 -187 153 -322 -7 -35
-1245 -3156 -1344 -3388 -7 -16 -61 -151 -120 -300 -59 -148 -113 -283 -120
-300 -7 -16 -43 -106 -80 -200 -37 -93 -73 -183 -80 -200 -7 -16 -25 -61 -40
-100 -15 -38 -35 -89 -46 -112 -10 -24 -19 -46 -19 -50 -1 -5 -9 -26 -20 -48
-11 -22 -19 -45 -20 -51 0 -6 -6 -24 -14 -40 -8 -16 -80 -195 -161 -399 -81
-203 -153 -383 -160 -400 -7 -16 -43 -106 -80 -200 -37 -93 -71 -179 -75 -190
-5 -11 -16 -37 -24 -57 -26 -65 -65 -106 -131 -139 -201 -99 -428 25 -440 239
-4 76 -19 34 213 612 71 179 160 402 197 495 37 94 73 184 80 200 7 17 115
287 240 600 125 314 233 584 240 600 7 17 43 107 80 200 37 94 71 179 76 190
5 11 225 562 489 1225 264 663 490 1228 502 1255 28 66 25 59 179 445 119 299
137 339 175 376 94 94 231 117 350 59z"/>
<path d="M7525 17668 c-22 -5 -60 -16 -85 -25 -25 -10 -394 -227 -820 -483
-737 -444 -1048 -631 -1115 -671 -16 -10 -46 -28 -65 -39 -45 -26 -49 -29
-525 -315 -263 -158 -419 -258 -456 -293 -140 -129 -196 -290 -163 -462 34
-177 109 -264 351 -411 198 -120 910 -547 958 -574 19 -11 278 -166 576 -345
298 -179 553 -332 568 -340 14 -9 171 -103 349 -209 178 -106 347 -203 375
-214 77 -31 239 -29 322 3 147 57 264 171 310 300 22 62 27 96 27 176 0 128
-48 246 -137 336 -61 61 -57 59 -530 341 -225 134 -454 271 -508 303 -54 33
-110 66 -125 75 -15 9 -164 98 -332 199 -168 100 -318 190 -335 200 -39 23
-383 228 -413 247 l-23 14 34 23 c19 13 38 25 44 27 7 3 284 168 403 240 39
24 579 344 605 359 17 10 100 59 185 110 85 51 175 104 200 118 25 13 51 29
58 35 7 5 25 17 41 26 16 9 86 50 155 91 70 41 134 80 144 85 419 245 464 287
517 469 20 67 22 202 5 267 -41 157 -191 296 -363 338 -54 13 -170 12 -232 -1z
m248 -224 c41 -22 106 -83 124 -117 41 -79 35 -203 -12 -277 -43 -67 -37 -63
-430 -295 -137 -81 -261 -155 -275 -164 -14 -8 -37 -22 -51 -31 -38 -22 -323
-191 -367 -217 -20 -13 -68 -41 -107 -63 -38 -23 -140 -83 -225 -134 -224
-134 -730 -436 -765 -456 -62 -36 -340 -202 -343 -205 -3 -3 124 -85 132 -85
3 0 48 -27 101 -60 53 -33 97 -60 99 -60 2 0 387 -229 486 -289 109 -66 1220
-731 1257 -752 17 -10 51 -30 75 -46 24 -15 52 -33 64 -39 91 -49 271 -163
298 -188 80 -75 106 -170 80 -291 -6 -29 -52 -96 -84 -123 -92 -78 -223 -102
-310 -57 -14 7 -203 120 -420 250 -217 131 -408 245 -425 255 -16 9 -212 127
-435 260 -223 134 -414 248 -425 254 -11 6 -31 19 -45 27 -19 13 -756 454
-854 513 -11 6 -51 30 -88 54 -38 23 -71 42 -74 42 -15 0 -153 97 -183 129
-112 119 -98 293 32 413 22 20 878 543 1007 615 14 8 39 23 55 33 17 11 46 29
65 40 19 11 52 30 72 42 21 13 126 77 235 142 109 65 350 211 535 322 186 112
342 204 347 204 5 0 11 3 13 8 3 7 508 312 566 342 75 38 205 40 275 4z"/>
<path d="M22267 17666 c-105 -31 -211 -103 -272 -186 -99 -135 -114 -345 -35
-506 58 -119 118 -166 468 -369 10 -5 33 -19 52 -31 89 -54 459 -274 490 -291
19 -11 91 -54 160 -95 213 -128 874 -521 895 -533 11 -6 80 -46 153 -90 150
-89 146 -78 50 -136 -87 -53 -1144 -684 -1163 -695 -11 -6 -229 -136 -485
-289 -397 -238 -474 -287 -525 -340 -73 -75 -75 -78 -102 -135 -49 -106 -57
-264 -17 -376 88 -252 402 -399 642 -301 31 13 207 113 390 223 183 109 351
210 375 223 23 13 61 37 85 52 24 16 45 29 47 29 2 0 52 29 110 65 59 36 108
65 110 65 2 0 48 27 102 60 54 33 105 64 113 69 8 5 145 87 304 183 159 95
305 183 325 194 20 12 113 67 206 124 94 56 190 114 215 128 25 14 63 37 85
51 22 14 45 28 50 31 47 23 420 251 455 279 144 113 212 255 204 428 -6 134
-62 244 -175 347 -47 43 -294 196 -934 582 -868 522 -1015 610 -1084 650 -36
21 -393 236 -421 253 -8 6 -46 29 -85 52 -38 23 -86 51 -105 64 -148 94 -316
187 -370 205 -82 28 -243 36 -313 16z m234 -212 c30 -9 70 -26 89 -38 30 -20
538 -325 625 -376 17 -10 404 -242 860 -517 457 -275 942 -567 1079 -649 277
-166 341 -219 375 -307 37 -100 7 -229 -71 -304 -28 -26 -459 -293 -474 -293
-3 0 -10 -5 -17 -10 -7 -6 -257 -157 -557 -337 -300 -179 -842 -503 -1204
-720 -362 -218 -677 -404 -700 -414 -50 -22 -152 -19 -210 6 -58 25 -149 121
-164 173 -31 105 -7 216 62 285 24 23 114 85 202 137 87 52 382 227 654 390
272 163 716 429 985 590 270 161 502 300 516 309 15 9 56 33 93 54 36 21 68
42 71 47 5 7 -14 20 -115 78 -19 11 -116 68 -215 127 -99 60 -272 163 -385
230 -113 67 -329 196 -480 286 -151 90 -284 169 -295 175 -11 5 -38 21 -60 35
-23 13 -50 29 -60 36 -727 432 -881 525 -908 550 -28 28 -64 94 -73 134 -10
48 -5 135 10 170 55 133 212 198 367 153z"/>
</g>
</svg>
